HIERARCHY
ROOT Hips
{
	OFFSET 0.000000 35.082581 0.000000
	CHANNELS 6 Xposition Yposition Zposition Xrotation Yrotation Zrotation 
	JOINT Spine
	{
		OFFSET 0.000000 6.876099 0.125700
		CHANNELS 3 Xrotation Yrotation Zrotation
		JOINT Spine1
		{
			OFFSET 0.000000 5.730043 0.104720
			CHANNELS 3 Xrotation Yrotation Zrotation
			JOINT Spine1_split
			{
				OFFSET 0.000000 5.730043 0.104720
				CHANNELS 3 Xrotation Yrotation Zrotation
				JOINT Spine2
				{
					OFFSET 0.000000 5.730043 0.104720
					CHANNELS 3 Xrotation Yrotation Zrotation
					JOINT Neck
					{
						OFFSET 0.000000 10.314075 0.188496
						CHANNELS 3 Xrotation Yrotation Zrotation
						JOINT Head
						{
							OFFSET 0.000000 7.643700 -2.377400
							CHANNELS 3 Xrotation Yrotation Zrotation
							JOINT HeadTop_End
							{
								OFFSET 0.000000 43.788605 -13.619600
								CHANNELS 3 Xrotation Yrotation Zrotation
								End Site
								{
									OFFSET 0.000000 0.000000 0.000000
								}
							}
						}
					}
					JOINT LeftShoulder
					{
						OFFSET 2.196100 4.412489 0.087492
						CHANNELS 3 Xrotation Yrotation Zrotation
						JOINT LeftShoulder_split
						{
							OFFSET 2.196100 4.412489 0.087492
							CHANNELS 3 Xrotation Yrotation Zrotation
							JOINT LeftArm
							{
								OFFSET 8.771219 -2.981674 -0.026999
								CHANNELS 3 Xrotation Yrotation Zrotation
								JOINT LeftForeArm
								{
									OFFSET 8.512804 0.000000 -0.000000
									CHANNELS 3 Xrotation Yrotation Zrotation
									JOINT LeftHand
									{
										OFFSET 18.484802 0.000000 -0.000000
										CHANNELS 3 Xrotation Yrotation Zrotation
										JOINT LeftHandThumb1
										{
											OFFSET 2.499420 -1.158070 2.653252
											CHANNELS 3 Xrotation Yrotation Zrotation
											JOINT LeftHandThumb2
											{
												OFFSET 2.370079 -1.368366 1.368366
												CHANNELS 3 Xrotation Yrotation Zrotation
												JOINT LeftHandThumb3
												{
													OFFSET 2.676727 -1.545410 1.545409
													CHANNELS 3 Xrotation Yrotation Zrotation
													JOINT LeftHandThumb4
													{
														OFFSET 1.692226 -0.977005 0.977007
														CHANNELS 3 Xrotation Yrotation Zrotation
														End Site
														{
															OFFSET 0.000000 0.000000 0.000000
														}
													}
												}
											}
										}
										JOINT LeftHandIndex1
										{
											OFFSET 7.924831 -0.457527 2.345128
											CHANNELS 3 Xrotation Yrotation Zrotation
											JOINT LeftHandIndex2
											{
												OFFSET 3.643303 0.000000 0.000000
												CHANNELS 3 Xrotation Yrotation Zrotation
												JOINT LeftHandIndex3
												{
													OFFSET 3.810799 0.000000 0.000000
													CHANNELS 3 Xrotation Yrotation Zrotation
													JOINT LeftHandIndex4
													{
														OFFSET 2.403702 0.000000 0.000000
														CHANNELS 3 Xrotation Yrotation Zrotation
														End Site
														{
															OFFSET 0.000000 0.000000 0.000000
														}
													}
												}
											}
										}
										JOINT LeftHandMiddle1
										{
											OFFSET 8.563995 0.000000 -0.000000
											CHANNELS 3 Xrotation Yrotation Zrotation
											JOINT LeftHandMiddle2
											{
												OFFSET 3.861618 0.000000 0.000000
												CHANNELS 3 Xrotation Yrotation Zrotation
												JOINT LeftHandMiddle3
												{
													OFFSET 3.701603 0.000000 0.000000
													CHANNELS 3 Xrotation Yrotation Zrotation
													JOINT LeftHandMiddle4
													{
														OFFSET 2.322544 0.000000 0.000000
														CHANNELS 3 Xrotation Yrotation Zrotation
														End Site
														{
															OFFSET 0.000000 0.000000 0.000000
														}
													}
												}
											}
										}
										JOINT LeftHandRing1
										{
											OFFSET 8.426460 -0.424637 -3.286992
											CHANNELS 3 Xrotation Yrotation Zrotation
											JOINT LeftHandRing2
											{
												OFFSET 3.126408 0.000000 0.000000
												CHANNELS 3 Xrotation Yrotation Zrotation
												JOINT LeftHandRing3
												{
													OFFSET 3.085026 0.000000 0.000000
													CHANNELS 3 Xrotation Yrotation Zrotation
													JOINT LeftHandRing4
													{
														OFFSET 1.644005 0.000000 0.000000
														CHANNELS 3 Xrotation Yrotation Zrotation
														End Site
														{
															OFFSET 0.000000 0.000000 0.000000
														}
													}
												}
											}
										}
									}
								}
							}
						}
					}
					JOINT RightShoulder
					{
						OFFSET -2.196100 4.412496 0.070690
						CHANNELS 3 Xrotation Yrotation Zrotation
						JOINT RightShoulder_split
						{
							OFFSET -2.196100 4.412496 0.070690
							CHANNELS 3 Xrotation Yrotation Zrotation
							JOINT RightArm
							{
								OFFSET -8.771282 -2.981682 -0.094208
								CHANNELS 3 Xrotation Yrotation Zrotation
								JOINT RightForeArm
								{
									OFFSET -8.494598 0.000000 0.000000
									CHANNELS 3 Xrotation Yrotation Zrotation
									JOINT RightHand
									{
										OFFSET -18.483803 0.000000 0.000001
										CHANNELS 3 Xrotation Yrotation Zrotation
										JOINT RightHandThumb1
										{
											OFFSET -2.527351 -1.008072 2.575253
											CHANNELS 3 Xrotation Yrotation Zrotation
											JOINT RightHandThumb2
											{
												OFFSET -2.321518 -1.340328 1.340329
												CHANNELS 3 Xrotation Yrotation Zrotation
												JOINT RightHandThumb3
												{
													OFFSET -2.657753 -1.534454 1.534455
													CHANNELS 3 Xrotation Yrotation Zrotation
													JOINT RightHandThumb4
													{
														OFFSET -1.807510 -1.043568 1.043567
														CHANNELS 3 Xrotation Yrotation Zrotation
														End Site
														{
															OFFSET 0.000000 0.000000 0.000000
														}
													}
												}
											}
										}
										JOINT RightHandIndex1
										{
											OFFSET -8.811420 0.015533 2.887987
											CHANNELS 3 Xrotation Yrotation Zrotation
											JOINT RightHandIndex2
											{
												OFFSET -3.537502 0.000000 0.000000
												CHANNELS 3 Xrotation Yrotation Zrotation
												JOINT RightHandIndex3
												{
													OFFSET -3.356201 0.000000 0.000000
													CHANNELS 3 Xrotation Yrotation Zrotation
													JOINT RightHandIndex4
													{
														OFFSET -1.933098 0.000000 0.000000
														CHANNELS 3 Xrotation Yrotation Zrotation
														End Site
														{
															OFFSET 0.000000 0.000000 0.000000
														}
													}
												}
											}
										}
										JOINT RightHandMiddle1
										{
											OFFSET -8.178135 0.000000 0.000000
											CHANNELS 3 Xrotation Yrotation Zrotation
											JOINT RightHandMiddle2
											{
												OFFSET -3.901302 0.000000 0.000000
												CHANNELS 3 Xrotation Yrotation Zrotation
												JOINT RightHandMiddle3
												{
													OFFSET -3.909599 0.000000 0.000000
													CHANNELS 3 Xrotation Yrotation Zrotation
													JOINT RightHandMiddle4
													{
														OFFSET -2.376003 0.000000 0.000000
														CHANNELS 3 Xrotation Yrotation Zrotation
														End Site
														{
															OFFSET 0.000000 0.000000 0.000000
														}
													}
												}
											}
										}
										JOINT RightHandRing1
										{
											OFFSET -7.559013 0.014137 -2.865403
											CHANNELS 3 Xrotation Yrotation Zrotation
											JOINT RightHandRing2
											{
												OFFSET -3.449306 0.000000 0.000000
												CHANNELS 3 Xrotation Yrotation Zrotation
												JOINT RightHandRing3
												{
													OFFSET -3.362106 0.000000 0.000000
													CHANNELS 3 Xrotation Yrotation Zrotation
													JOINT RightHandRing4
													{
														OFFSET -2.076401 0.000000 0.000000
														CHANNELS 3 Xrotation Yrotation Zrotation
														End Site
														{
															OFFSET 0.000000 0.000000 0.000000
														}
													}
												}
											}
										}
									}
								}
							}
						}
					}
				}
			}
		}
	}
	JOINT LeftUpLeg
	{
		OFFSET 10.205400 -3.823500 0.155100
		CHANNELS 3 Xrotation Yrotation Zrotation
		JOINT LeftLeg
		{
			OFFSET 0.708757 -12.982077 0.567790
			CHANNELS 3 Xrotation Yrotation Zrotation
			JOINT LeftFoot
			{
				OFFSET -0.708756 -10.717838 -2.184338
				CHANNELS 3 Xrotation Yrotation Zrotation
				JOINT LeftToeBase
				{
					OFFSET 0.108149 -7.191104 7.560241
					CHANNELS 3 Xrotation Yrotation Zrotation
					JOINT LeftToe_End
					{
						OFFSET 0.070230 0.081724 4.490308
						CHANNELS 3 Xrotation Yrotation Zrotation
						End Site
						{
							OFFSET 0.000000 0.000000 0.000000
						}
					}
				}
			}
		}
	}
	JOINT RightUpLeg
	{
		OFFSET -10.205400 -3.823500 0.005500
		CHANNELS 3 Xrotation Yrotation Zrotation
		JOINT RightLeg
		{
			OFFSET -0.708756 -12.982134 0.610632
			CHANNELS 3 Xrotation Yrotation Zrotation
			JOINT RightFoot
			{
				OFFSET 0.708754 -10.717769 -1.945823
				CHANNELS 3 Xrotation Yrotation Zrotation
				JOINT RightToeBase
				{
					OFFSET -0.108140 -7.191069 7.372968
					CHANNELS 3 Xrotation Yrotation Zrotation
					JOINT RightToe_End
					{
						OFFSET -0.070227 0.081735 4.479403
						CHANNELS 3 Xrotation Yrotation Zrotation
						End Site
						{
							OFFSET 0.000000 0.000000 0.000000
						}
					}
				}
			}
		}
	}
}
MOTION
Frames: 4
Frame Time: 0.016667
-4.150338 52.406311 -1.988086 9.939985 -11.988794 -1.240580 33.252605 6.823492 1.835451 7.016432 1.371147 0.932973 0.000000 0.000000 0.000000 7.016120 1.356909 0.957104 7.978338 3.451513 1.914782 -5.460708 28.728131 -21.647093 -0.000002 0.000002 0.000002 0.333790 -3.623991 3.511425 0.000000 0.000000 0.000000 -39.710959 20.403435 24.454218 0.000003 -1.659870 0.000006 5.337905 -17.498074 -30.910465 -1.512210 3.683019 6.110835 3.939040 7.948711 0.746793 -0.579466 1.575001 2.538725 -0.000004 0.000000 0.000001 0.033145 0.675966 -5.610574 0.032966 0.674441 -5.597735 0.032967 0.674424 -5.597743 -0.000001 -0.000000 0.000000 0.069869 0.980268 -8.151103 0.078696 1.040184 -8.653157 0.076514 1.025681 -8.531546 0.000000 0.000001 0.000002 0.141443 1.391207 -11.609550 0.158294 1.470738 -12.283642 0.154438 1.453030 -12.133360 -0.000001 -0.000001 -0.000002 -3.152577 -6.175995 -32.353554 0.000000 0.000000 0.000000 -43.155324 11.870921 -9.722797 -0.000007 13.107166 -0.000002 11.026655 -9.558984 61.789942 -1.849253 -3.581784 -6.586150 4.637196 -8.634133 -0.225390 -1.273766 0.137309 -2.094872 0.000000 -0.000001 0.000002 0.097324 -1.161570 9.577302 0.097298 -1.161579 9.577315 0.097327 -1.161576 9.577309 -0.000000 -0.000000 -0.000000 0.734446 -4.504872 10.622730 0.142236 -1.401930 11.584714 -0.321094 -1.479190 11.440324 -0.000002 -0.000001 -0.000002 1.799578 -8.681477 12.425410 0.204339 -1.676606 13.897308 -0.341215 -1.789771 13.721059 -0.000003 0.000000 -0.000001 -146.981204 -39.180240 30.173385 115.698159 -24.470146 -7.346902 42.602393 -26.841503 -6.684578 -0.018058 0.000000 0.000008 0.000001 -0.000001 0.000000 -38.151801 22.173569 -103.868633 100.514204 67.549874 34.989550 -12.966806 12.967289 33.421249 -0.009366 -0.000001 -0.000012 -0.000000 0.000000 -0.000001 
-4.193818 51.832859 -1.842058 10.343358 -11.507807 -0.532624 32.866577 6.447960 1.205867 6.928098 1.411405 0.809341 0.000000 0.000000 0.000000 6.927395 1.400736 0.834281 8.137129 3.359823 2.019690 -4.939795 28.238410 -21.457487 -0.000003 0.000000 -0.000000 0.260222 -3.373978 3.577389 0.000000 0.000000 0.000000 -40.196049 20.677969 26.508050 -0.000004 -2.492640 0.000009 7.106732 -15.300570 -31.430618 -1.511008 3.682985 6.108661 3.939040 7.948709 0.746793 -0.579465 1.575009 2.538725 -0.000002 0.000005 -0.000002 0.033144 0.675967 -5.610574 0.032966 0.674441 -5.597735 0.032965 0.674425 -5.597743 -0.000000 0.000000 0.000002 0.069872 0.980268 -8.151103 0.078694 1.040184 -8.653158 0.076517 1.025683 -8.531548 0.000001 0.000000 0.000002 0.141440 1.391207 -11.609549 0.158292 1.470738 -12.283638 0.154433 1.453030 -12.133361 0.000001 -0.000002 -0.000004 -2.438249 -4.287068 -32.305565 0.000000 0.000000 0.000000 -40.704058 7.760220 -13.687634 0.000003 15.033130 -0.000014 9.217875 -10.057897 64.473502 -1.849254 -3.581790 -6.586145 4.637197 -8.634135 -0.225391 -1.273761 0.137305 -2.094872 0.000004 -0.000005 0.000003 0.097324 -1.161571 9.577303 0.097292 -1.161579 9.577316 0.097326 -1.161575 9.577305 -0.000001 -0.000000 -0.000003 0.734450 -4.504873 10.622729 0.142229 -1.401924 11.584715 -0.321094 -1.479192 11.440317 -0.000002 -0.000000 -0.000001 1.799582 -8.681477 12.425408 0.204332 -1.676603 13.897307 -0.341218 -1.789768 13.721059 -0.000000 -0.000000 -0.000002 -147.713701 -36.105623 30.659258 116.183731 -21.841511 -8.327681 44.549595 -28.097423 -2.319414 -0.018063 -0.000006 -0.000004 -0.000000 -0.000004 -0.000000 -35.680813 19.122873 -102.016388 97.482898 67.536077 37.589465 -16.627605 11.879481 31.790514 -0.008796 -0.000004 -0.000001 -0.000001 -0.000003 -0.000003 
-4.205482 51.051609 -1.733678 10.312448 -11.418714 -0.284119 32.110522 6.286273 0.786858 6.762698 1.484584 0.721722 0.000000 0.000000 0.000000 6.761563 1.477280 0.747489 8.034101 3.323869 2.004734 -4.484727 27.881879 -21.407109 -0.000001 0.000002 -0.000002 0.150301 -2.880989 3.833611 0.000000 0.000000 0.000000 -39.803358 20.644044 27.958493 -0.000001 -3.001038 0.000003 7.784227 -14.020445 -32.303421 -1.509861 3.682939 6.106607 3.939039 7.948708 0.746790 -0.579460 1.575007 2.538724 0.000003 -0.000001 -0.000002 0.033143 0.675967 -5.610575 0.032966 0.674439 -5.597733 0.032967 0.674424 -5.597742 -0.000001 -0.000001 0.000000 0.069872 0.980268 -8.151103 0.078693 1.040182 -8.653159 0.076511 1.025682 -8.531547 0.000000 -0.000001 -0.000001 0.141444 1.391207 -11.609548 0.158290 1.470737 -12.283641 0.154439 1.453031 -12.133362 0.000001 -0.000002 -0.000000 -1.787100 -2.323000 -32.142027 0.000000 0.000000 0.000000 -38.691522 3.637162 -16.996654 0.000001 17.122611 0.000014 6.431864 -10.848097 65.605251 -1.849259 -3.581786 -6.586144 4.637198 -8.634136 -0.225392 -1.273758 0.137304 -2.094873 -0.000000 0.000000 0.000003 0.097321 -1.161570 9.577300 0.097291 -1.161579 9.577314 0.097324 -1.161577 9.577303 -0.000000 -0.000001 -0.000001 0.734450 -4.504873 10.622727 0.142236 -1.401927 11.584715 -0.321098 -1.479189 11.440319 -0.000002 -0.000002 -0.000002 1.799574 -8.681478 12.425411 0.204337 -1.676602 13.897313 -0.341215 -1.789768 13.721063 -0.000000 -0.000002 0.000002 -147.499711 -33.681377 30.541590 116.892786 -20.151170 -8.790023 45.894811 -26.986694 1.112523 -0.018093 -0.000005 -0.000003 0.000001 -0.000002 0.000000 -34.138518 17.312906 -98.195615 97.346779 66.977149 37.409943 -21.137072 10.743174 30.018511 -0.008128 0.000003 0.000000 -0.000001 0.000000 0.000001 
-4.172977 50.102547 -1.701777 10.010594 -11.473628 -0.288405 31.073652 6.283599 0.531062 6.538973 1.568812 0.665330 0.000000 0.000000 0.000000 6.537225 1.564635 0.691661 7.826002 3.324095 1.952254 -4.157724 27.663963 -21.379896 -0.000001 0.000002 -0.000000 0.039217 -2.385791 4.168972 0.000000 0.000000 0.000000 -38.968329 20.585633 29.044396 0.000003 -3.374189 -0.000004 8.050759 -13.187934 -33.345906 -1.508795 3.682912 6.104657 3.939046 7.948708 0.746793 -0.579462 1.575002 2.538723 -0.000001 -0.000002 -0.000004 0.033145 0.675966 -5.610575 0.032966 0.674441 -5.597735 0.032967 0.674424 -5.597743 0.000003 -0.000000 0.000001 0.069876 0.980268 -8.151103 0.078694 1.040184 -8.653160 0.076514 1.025682 -8.531548 0.000003 -0.000000 -0.000001 0.141443 1.391206 -11.609550 0.158292 1.470740 -12.283644 0.154438 1.453030 -12.133361 0.000001 -0.000003 0.000001 -1.195173 -0.396584 -31.763696 0.000000 0.000000 0.000000 -37.135155 -0.211841 -19.628953 0.000008 19.145497 -0.000011 4.004386 -11.617235 66.067231 -1.849255 -3.581790 -6.586147 4.637199 -8.634139 -0.225391 -1.273761 0.137306 -2.094872 -0.000001 -0.000000 0.000003 0.097324 -1.161567 9.577303 0.097291 -1.161582 9.577319 0.097325 -1.161575 9.577307 -0.000001 -0.000000 -0.000001 0.734449 -4.504871 10.622732 0.142229 -1.401929 11.584712 -0.321099 -1.479189 11.440316 0.000001 -0.000000 -0.000000 1.799577 -8.681475 12.425413 0.204335 -1.676603 13.897312 -0.341214 -1.789767 13.721064 0.000001 -0.000003 -0.000001 -146.581296 -31.468273 30.000404 117.761737 -18.770422 -8.727599 46.043446 -25.064714 3.301556 -0.017419 -0.000004 0.000000 -0.000000 -0.000001 0.000000 -33.015437 16.168478 -93.205834 99.035393 66.078057 35.420282 -26.236456 9.412667 28.056665 -0.007127 -0.000019 0.000004 -0.000001 0.000003 0.000001 
